<svg width="138" height="31" viewBox="0 0 138 31" fill="none" xmlns="http://www.w3.org/2000/svg">
<path fill-rule="evenodd" clip-rule="evenodd" d="M18.9279 11.663L12.1392 28.7144L9.03574 19.3605L15.8245 2.30908L18.9279 11.663ZM24.8996 5.79833L28 15.1522L25.644 14.5961L22.5436 5.24259L24.8996 5.79833ZM21.9472 5.38501L19.4536 11.6481L22.5569 21.002L25.0865 14.7413L21.9472 5.38501ZM6.05285 25.6338L8.54642 19.3707L5.44302 10.0168L2.9135 16.2776L6.05285 25.6338ZM0 15.8668L3.10036 25.2206L5.45644 25.7763L2.35606 16.4229L0 15.8668Z" fill="white"/>
<path d="M40.064 24.5V7.58H47.072C48.88 7.58 50.264 8.012 51.224 8.876C52.184 9.74 52.664 10.932 52.664 12.452C52.664 13.972 52.184 15.172 51.224 16.052C50.264 16.916 48.88 17.348 47.072 17.348H42.296V24.5H40.064ZM42.296 15.524H46.856C48.04 15.524 48.936 15.26 49.544 14.732C50.152 14.188 50.456 13.428 50.456 12.452C50.456 11.476 50.152 10.724 49.544 10.196C48.936 9.668 48.04 9.404 46.856 9.404H42.296V15.524ZM60.5795 24.716C59.3955 24.716 58.3715 24.468 57.5075 23.972C56.6435 23.46 55.9715 22.74 55.4915 21.812C55.0115 20.868 54.7715 19.748 54.7715 18.452C54.7715 17.172 55.0115 16.068 55.4915 15.14C55.9715 14.196 56.6435 13.476 57.5075 12.98C58.3715 12.468 59.3955 12.212 60.5795 12.212C61.7635 12.212 62.7875 12.468 63.6515 12.98C64.5315 13.476 65.2035 14.196 65.6675 15.14C66.1475 16.068 66.3875 17.172 66.3875 18.452C66.3875 19.748 66.1475 20.868 65.6675 21.812C65.2035 22.74 64.5315 23.46 63.6515 23.972C62.7875 24.468 61.7635 24.716 60.5795 24.716ZM60.5795 22.988C61.6675 22.988 62.5395 22.604 63.1955 21.836C63.8515 21.068 64.1795 19.94 64.1795 18.452C64.1795 16.964 63.8515 15.844 63.1955 15.092C62.5395 14.34 61.6675 13.964 60.5795 13.964C59.4755 13.964 58.5955 14.34 57.9395 15.092C57.2995 15.844 56.9795 16.964 56.9795 18.452C56.9795 19.94 57.2995 21.068 57.9395 21.836C58.5955 22.604 59.4755 22.988 60.5795 22.988ZM69.7756 24.5V15.38C69.7756 14.9 69.7596 14.412 69.7276 13.916C69.7116 13.404 69.6716 12.908 69.6076 12.428H71.7196L71.9836 15.452L71.6236 15.476C71.7836 14.74 72.0556 14.132 72.4396 13.652C72.8396 13.156 73.3116 12.796 73.8556 12.572C74.4156 12.332 74.9916 12.212 75.5836 12.212C75.8396 12.212 76.0556 12.22 76.2316 12.236C76.4076 12.252 76.5836 12.292 76.7596 12.356L76.7116 14.3C76.4716 14.204 76.2476 14.148 76.0396 14.132C75.8476 14.1 75.6076 14.084 75.3196 14.084C74.6156 14.084 74.0076 14.244 73.4956 14.564C72.9996 14.884 72.6156 15.308 72.3436 15.836C72.0876 16.364 71.9596 16.932 71.9596 17.54V24.5H69.7756ZM84.3307 24.716C83.0667 24.716 82.1067 24.372 81.4507 23.684C80.8107 22.98 80.4907 21.924 80.4907 20.516V14.108H78.1387V12.428H80.4907V9.188L82.6747 8.588V12.428H86.0827V14.108H82.6747V20.324C82.6747 21.252 82.8347 21.916 83.1547 22.316C83.4907 22.7 83.9707 22.892 84.5947 22.892C84.9147 22.892 85.1867 22.868 85.4107 22.82C85.6507 22.756 85.8667 22.684 86.0587 22.604V24.404C85.8187 24.5 85.5387 24.572 85.2187 24.62C84.9147 24.684 84.6187 24.716 84.3307 24.716ZM93.9202 24.716C92.7202 24.716 91.6802 24.468 90.8002 23.972C89.9202 23.46 89.2322 22.732 88.7362 21.788C88.2562 20.828 88.0162 19.692 88.0162 18.38C88.0162 17.084 88.2642 15.98 88.7602 15.068C89.2562 14.14 89.9442 13.436 90.8242 12.956C91.7042 12.46 92.7362 12.212 93.9202 12.212C94.7042 12.212 95.4642 12.348 96.2002 12.62C96.9362 12.876 97.5362 13.252 98.0002 13.748L97.2562 15.284C96.7922 14.836 96.2802 14.508 95.7202 14.3C95.1602 14.076 94.6082 13.964 94.0642 13.964C92.8802 13.964 91.9522 14.348 91.2802 15.116C90.6082 15.868 90.2722 16.964 90.2722 18.404C90.2722 19.86 90.6082 20.98 91.2802 21.764C91.9522 22.548 92.8802 22.94 94.0642 22.94C94.5922 22.94 95.1362 22.836 95.6962 22.628C96.2562 22.42 96.7762 22.092 97.2562 21.644L98.0002 23.156C97.5202 23.668 96.9042 24.06 96.1522 24.332C95.4162 24.588 94.6722 24.716 93.9202 24.716ZM105.66 24.716C104.604 24.716 103.676 24.468 102.876 23.972C102.076 23.476 101.452 22.756 101.004 21.812C100.556 20.868 100.332 19.748 100.332 18.452C100.332 17.156 100.556 16.044 101.004 15.116C101.452 14.172 102.076 13.452 102.876 12.956C103.676 12.46 104.604 12.212 105.66 12.212C106.732 12.212 107.66 12.484 108.444 13.028C109.244 13.556 109.772 14.284 110.028 15.212H109.74L110.004 12.428H112.116C112.068 12.908 112.02 13.388 111.972 13.868C111.94 14.348 111.924 14.82 111.924 15.284V24.5H109.74V21.74H110.004C109.748 22.652 109.22 23.38 108.42 23.924C107.636 24.452 106.716 24.716 105.66 24.716ZM106.164 22.988C107.252 22.988 108.124 22.604 108.78 21.836C109.436 21.068 109.764 19.94 109.764 18.452C109.764 16.964 109.436 15.844 108.78 15.092C108.124 14.34 107.252 13.964 106.164 13.964C105.076 13.964 104.196 14.34 103.524 15.092C102.868 15.844 102.54 16.964 102.54 18.452C102.54 19.94 102.868 21.068 103.524 21.836C104.18 22.604 105.06 22.988 106.164 22.988ZM120.143 24.716C119.167 24.716 118.255 24.588 117.407 24.332C116.575 24.076 115.887 23.708 115.343 23.228L116.039 21.716C116.631 22.164 117.279 22.508 117.983 22.748C118.703 22.972 119.439 23.084 120.191 23.084C121.103 23.084 121.791 22.916 122.255 22.58C122.735 22.244 122.975 21.796 122.975 21.236C122.975 20.788 122.823 20.428 122.519 20.156C122.215 19.884 121.735 19.684 121.079 19.556L118.799 19.1C117.775 18.86 116.999 18.476 116.471 17.948C115.959 17.404 115.703 16.708 115.703 15.86C115.703 15.156 115.895 14.532 116.279 13.988C116.663 13.428 117.207 12.996 117.911 12.692C118.631 12.372 119.471 12.212 120.431 12.212C121.311 12.212 122.127 12.34 122.879 12.596C123.647 12.852 124.279 13.228 124.775 13.724L124.055 15.188C123.559 14.756 122.999 14.428 122.375 14.204C121.767 13.964 121.143 13.844 120.503 13.844C119.575 13.844 118.887 14.028 118.439 14.396C117.991 14.748 117.767 15.212 117.767 15.788C117.767 16.22 117.903 16.58 118.175 16.868C118.447 17.14 118.887 17.348 119.495 17.492L121.775 17.948C122.847 18.172 123.655 18.54 124.199 19.052C124.743 19.564 125.015 20.244 125.015 21.092C125.015 21.844 124.807 22.492 124.391 23.036C123.991 23.58 123.423 23.996 122.687 24.284C121.967 24.572 121.119 24.716 120.143 24.716ZM132.868 24.716C131.604 24.716 130.644 24.372 129.988 23.684C129.348 22.98 129.028 21.924 129.028 20.516V14.108H126.676V12.428H129.028V9.188L131.212 8.588V12.428H134.62V14.108H131.212V20.324C131.212 21.252 131.372 21.916 131.692 22.316C132.028 22.7 132.508 22.892 133.132 22.892C133.452 22.892 133.724 22.868 133.948 22.82C134.188 22.756 134.404 22.684 134.596 22.604V24.404C134.356 24.5 134.076 24.572 133.756 24.62C133.452 24.684 133.156 24.716 132.868 24.716Z" fill="white"/>
</svg>
