<svg width="105" height="120" viewBox="0 0 105 120" fill="none" xmlns="http://www.w3.org/2000/svg">
<g id="logo">
<rect id="Rectangle 97" width="104.444" height="120" fill="white"/>
<g id="Group">
<path id="Vector" d="M15.5845 86.2891C15.5845 90.9993 17.9401 92.6144 22.1765 92.6144C26.7179 92.6144 28.7499 90.6971 28.7499 86.3077V78.5752H24.2672V86.7628C24.2672 88.2437 23.7917 89.2704 22.1765 89.2704C20.3347 89.2704 20.0681 88.1122 20.0681 86.7628V78.5752H15.5845V86.2891Z" fill="black"/>
<path id="Vector_2" d="M35.1061 92.2536V87.618L35.011 85.4908L34.8199 83.4766H34.859L37.3479 92.2536H40.4635L42.9515 83.4766H42.9906L42.7613 85.9459L42.7044 88.074V92.2536H46.7329V78.5752H41.3168L38.9053 87.1051L36.4928 78.5752H31.0776V92.2536H35.1061Z" fill="black"/>
<path id="Vector_3" d="M53.5218 87.6002L54.9076 82.6988L56.352 87.6002H53.5218ZM57.2267 78.5752H52.6658L47.7644 92.2536H52.1538L52.6658 90.4491H57.1307L57.6614 92.2536H62.1272L57.2267 78.5752Z" fill="black"/>
<path id="Vector_4" d="M74.4153 82.5452C74.0935 80.1514 72.3637 78.2136 68.5637 78.2136C65.1432 78.2136 62.6365 79.6759 62.6365 82.5834C62.6365 87.8066 70.5033 86.3826 70.5033 88.4537C70.5033 89.1 69.7619 89.4609 68.641 89.4609C68.2028 89.4609 67.729 89.3471 67.3672 89.1186C66.9868 88.8911 66.721 88.5284 66.6259 88.0377H62.3325C62.4276 90.5053 64.7841 92.6138 68.393 92.6138C72.1539 92.6138 74.794 91.076 74.794 87.9017C74.794 82.9248 66.9299 84.1977 66.9299 82.147C66.9299 81.651 67.3663 81.3674 68.3548 81.3674C68.7912 81.3674 69.1904 81.443 69.513 81.6137C69.8357 81.7834 70.0837 82.0697 70.1602 82.5443H74.4153V82.5452Z" fill="black"/>
<path id="Vector_5" d="M87.8761 82.5452C87.5534 80.1514 85.8236 78.2136 82.0236 78.2136C78.6049 78.2136 76.0973 79.6759 76.0973 82.5834C76.0973 87.8066 83.9632 86.3826 83.9632 88.4537C83.9632 89.1 83.2218 89.4609 82.1018 89.4609C81.6645 89.4609 81.1907 89.3471 80.8271 89.1186C80.4467 88.8911 80.1809 88.5284 80.0858 88.0377H75.7942C75.8875 90.5053 78.244 92.6138 81.8529 92.6138C85.6147 92.6138 88.2556 91.076 88.2556 87.9017C88.2556 82.9248 80.3907 84.1977 80.3907 82.147C80.3907 81.651 80.8262 81.3674 81.8147 81.3674C82.252 81.3674 82.6511 81.443 82.9747 81.6137C83.2974 81.7834 83.5445 82.0697 83.6209 82.5443H87.8761V82.5452Z" fill="black"/>
<path id="Vector_6" d="M18.7994 70.1848C18.7994 59.2354 47.6406 37.7951 47.6406 30.8022C47.6406 28.4448 44.8397 27.7604 41.9472 27.7604C35.8805 27.7604 18.987 35.0591 18.987 45.8548C18.987 49.8077 21.507 52.014 26.2671 53.0771C22.6679 55.0522 17.5683 53.8709 15.5576 50.4628V75.3831H21.9817C20.0705 74.2818 18.7994 72.2151 18.7994 70.1848Z" fill="black"/>
<path id="Vector_7" d="M44.2797 26.0876C47.6211 26.0876 50.0273 26.7231 51.6913 27.652L41.2219 15.6315H15.5576V44.0131C18.267 37.6459 27.4395 26.0876 44.2797 26.0876Z" fill="black"/>
<path id="Vector_8" d="M30.2664 75.3825H42.3323V68.5176C38.4096 71.6101 34.2868 74.1479 30.2664 75.3825Z" fill="black"/>
<path id="Vector_9" d="M62.5875 15.5553L51.8736 27.8559C53.7723 29.0834 54.5394 30.7172 54.5394 32.0941C54.5394 39.848 25.1392 64.6331 25.1392 71.475C25.1392 72.9968 25.8858 73.2999 27.565 73.2999C41.0993 73.2999 64.4444 41.76 71.4383 32.9404C74.2383 32.4835 77.5565 32.8364 80.5423 32.5315C74.5965 38.9902 59.1119 63.4918 59.1119 71.5505C59.1119 73.6039 60.6053 74.6688 62.8453 74.6688C67.2338 74.6688 73.0196 67.978 73.0196 60.2224C74.6063 61.3629 75.353 63.0367 75.353 64.7087C75.353 69.0643 72.136 72.9603 67.8409 74.9959H88.2526V15.5553H62.5875Z" fill="#0067B1"/>
<path id="Vector_10" d="M15.5552 95.1344H18.4974V101.897H22.7224V104.229H15.5552V95.1344Z" fill="#0067B1"/>
<path id="Vector_11" d="M31.6019 102.178C32.3504 102.178 33.5006 101.707 33.5006 99.6812C33.5006 97.6554 32.3504 97.1843 31.6019 97.1843C30.8526 97.1843 29.7023 97.6554 29.7023 99.6812C29.7023 101.707 30.8526 102.178 31.6019 102.178ZM31.6019 94.9176C34.5033 94.9176 36.4429 96.9052 36.4429 99.6812C36.4429 102.458 34.5033 104.445 31.6019 104.445C28.6997 104.445 26.761 102.458 26.761 99.6812C26.761 96.9061 28.6997 94.9176 31.6019 94.9176Z" fill="#0067B1"/>
<path id="Vector_12" d="M50.2819 104.229H47.4206L46.3903 98.6873H46.3637L45.361 104.229H42.4863L39.8916 95.1344H42.7796L43.9432 100.751H43.9699L45.1201 95.1344H47.7148L48.8375 100.828H48.865L50.0553 95.1344H52.9566L50.2819 104.229Z" fill="#0067B1"/>
<path id="Vector_13" d="M56.8342 95.1344H64.7365V97.4651H59.7747V98.5993H64.2814V100.764H59.7747V101.897H64.8841V104.229H56.8342V95.1344Z" fill="#0067B1"/>
<path id="Vector_14" d="M69.457 95.1344H72.3984V101.897H76.6242V104.229H69.457V95.1344Z" fill="#0067B1"/>
<path id="Vector_15" d="M80.9971 95.1344H83.9384V101.897H88.1642V104.229H80.9971V95.1344Z" fill="#0067B1"/>
</g>
</g>
</svg>
